<svg width="26" height="31" viewBox="0 0 26 31" fill="none" xmlns="http://www.w3.org/2000/svg">
<path d="M4.41406 14.2145C4.41406 9.59773 8.15669 5.8551 12.7735 5.8551V5.8551C17.3902 5.8551 21.1329 9.59773 21.1329 14.2145V22.3295C21.1329 23.2987 21.1329 23.7833 20.9684 24.1634C20.7664 24.6304 20.394 25.0028 19.927 25.2048C19.547 25.3692 19.0623 25.3692 18.0931 25.3692H14.1711C13.4681 25.3692 13.1167 25.3692 12.8199 25.3496C8.31748 25.0517 4.73159 21.4658 4.4337 16.9634C4.41406 16.6667 4.41406 16.3152 4.41406 15.6122V14.2145Z" stroke="#221A1A"/>
<path d="M9.63867 14.3925L15.9082 14.3925" stroke="#221A1A" stroke-linecap="round" stroke-linejoin="round"/>
<path d="M12.7734 19.2711H15.9082" stroke="#221A1A" stroke-linecap="round" stroke-linejoin="round"/>
</svg>
