<svg width="26" height="31" viewBox="0 0 26 31" fill="none" xmlns="http://www.w3.org/2000/svg">
<path d="M15.9787 5.80712C16.6913 5.25261 17.0476 4.97536 17.4461 5.01556C17.8445 5.05577 18.1382 5.39862 18.7257 6.08432L21.7924 9.66378C22.2354 10.1808 22.4569 10.4393 22.4868 10.7547C22.5168 11.0702 22.348 11.3658 22.0103 11.957L19.919 15.6183C19.2311 16.8228 18.8871 17.425 18.6526 18.0738C18.6479 18.0867 18.6433 18.0996 18.6387 18.1125C18.4075 18.7625 18.2904 19.4461 18.0561 20.8132L17.7988 22.3148C17.7758 22.449 17.7643 22.5162 17.7518 22.5623C17.5732 23.2198 16.8037 23.5101 16.2353 23.1344C16.1954 23.108 16.1424 23.0652 16.0365 22.9796V22.9796C15.5887 22.6178 15.3649 22.4369 15.1455 22.2537C12.246 19.8314 9.75784 16.9555 7.77759 13.7379C7.62779 13.4945 7.48096 13.2469 7.18729 12.7518L6.8282 12.1464C6.70108 11.9321 6.63753 11.8249 6.60518 11.7347C6.42875 11.2426 6.66111 10.6977 7.13835 10.4843C7.22584 10.4452 7.34717 10.4169 7.58982 10.3602L8.27563 10.2001C9.50013 9.91429 10.1124 9.77136 10.6898 9.53753C10.9892 9.41632 11.2809 9.27709 11.5634 9.12061C12.1083 8.81876 12.6045 8.43265 13.5969 7.66045L15.9787 5.80712Z" stroke="#221A1A"/>
<path d="M5.99022 24.1496L10.6924 18.6613" stroke="#221A1A" stroke-linecap="round"/>
</svg>
