<svg width="30" height="36" viewBox="0 0 30 36" fill="none" xmlns="http://www.w3.org/2000/svg">
<path fill-rule="evenodd" clip-rule="evenodd" d="M23.1167 7.30703C22.6945 7.40904 22.1224 7.63779 21.2895 7.97291L11.8948 11.753C9.92432 12.5458 8.49839 13.1208 7.55876 13.6613C6.59939 14.213 6.34326 14.619 6.34326 15C6.34326 15.381 6.59939 15.787 7.55876 16.3387C8.4984 16.8792 9.92433 17.4542 11.8948 18.247L12.2943 18.4078C12.3193 18.4178 12.3439 18.4277 12.3682 18.4375C12.927 18.6621 13.314 18.8176 13.6245 19.0817C13.799 19.23 13.9522 19.4017 14.08 19.5918C14.3073 19.9301 14.4181 20.3322 14.5782 20.9127C14.5852 20.938 14.5922 20.9636 14.5994 20.9895C15.14 22.9472 15.5366 24.3814 15.9093 25.3756C16.0953 25.8718 16.2659 26.2317 16.4308 26.4818C16.596 26.7324 16.7303 26.8342 16.829 26.8746C17.1932 27.0238 17.6015 27.0238 17.9658 26.8746C18.0645 26.8342 18.1988 26.7324 18.364 26.4818C18.5289 26.2317 18.6995 25.8718 18.8855 25.3756C19.2582 24.3814 19.6547 22.9472 20.1954 20.9895L23.2953 9.76377C23.5343 8.89837 23.6971 8.30418 23.7508 7.87311C23.805 7.43766 23.724 7.34457 23.6844 7.30927C23.6449 7.27398 23.5433 7.20398 23.1167 7.30703ZM22.8819 6.33499C23.3883 6.21266 23.9268 6.18506 24.3505 6.56333C24.7741 6.9416 24.8075 7.4798 24.7431 7.99674C24.6792 8.50937 24.4955 9.17474 24.2707 9.98843L24.2593 10.03L21.1593 21.2557L21.1513 21.2845C20.6202 23.2078 20.2122 24.6854 19.8218 25.7266C19.6254 26.2507 19.4239 26.6909 19.1988 27.0323C18.974 27.3732 18.7003 27.6544 18.3447 27.8C17.7376 28.0486 17.0571 28.0486 16.45 27.8C16.0944 27.6544 15.8207 27.3732 15.5959 27.0323C15.3708 26.6909 15.1694 26.2507 14.9729 25.7266C14.5826 24.6854 14.1746 23.2078 13.6434 21.2844L13.6355 21.2557C13.4457 20.5684 13.3752 20.336 13.2499 20.1495C13.1733 20.0355 13.0813 19.9325 12.9766 19.8434C12.8055 19.6979 12.5826 19.6017 11.921 19.3355L11.5215 19.1747L11.4787 19.1575C9.55985 18.3855 8.06804 17.7852 7.0602 17.2056C6.06462 16.633 5.34326 15.9701 5.34326 15C5.34326 14.0299 6.06461 13.367 7.0602 12.7944C8.06803 12.2148 9.55984 11.6145 11.4787 10.8425L11.5215 10.8253L20.9163 7.04519L20.9563 7.0291C21.7394 6.71398 22.3798 6.4563 22.8819 6.33499Z" fill="#221A1A"/>
</svg>
